<?xml version="1.0" encoding="utf-8"?>
<!-- Generator: Adobe Illustrator 15.0.0, SVG Export Plug-In . SVG Version: 6.00 Build 0)  -->
<!DOCTYPE svg PUBLIC "-//W3C//DTD SVG 1.1//EN" "http://www.w3.org/Graphics/SVG/1.1/DTD/svg11.dtd">
<svg version="1.1"
	 id="svg2" inkscape:version="0.48.4 r9939" sodipodi:docname="netfree_1.svg" inkscape:export-ydpi="347.69797" inkscape:export-xdpi="347.69797" xmlns:dc="http://purl.org/dc/elements/1.1/" xmlns:cc="http://creativecommons.org/ns#" xmlns:rdf="http://www.w3.org/1999/02/22-rdf-syntax-ns#" xmlns:svg="http://www.w3.org/2000/svg" xmlns:sodipodi="http://sodipodi.sourceforge.net/DTD/sodipodi-0.dtd" xmlns:inkscape="http://www.inkscape.org/namespaces/inkscape" inkscape:export-filename="/home/magicode/Downloads/netfree_1.png"
	 xmlns="http://www.w3.org/2000/svg" xmlns:xlink="http://www.w3.org/1999/xlink" x="0px" y="0px" width="510px" height="129.826px"
	 viewBox="0 0 510 129.826" enable-background="new 0 0 510 129.826" xml:space="preserve">
<sodipodi:namedview  id="namedview4" fit-margin-left="5" fit-margin-top="5" inkscape:cy="-39.191067" inkscape:cx="188.88802" guidetolerance="10" inkscape:zoom="1.6636364" gridtolerance="10" objecttolerance="10" showgrid="false" borderopacity="1" bordercolor="#666666" pagecolor="#ffffff" inkscape:window-maximized="1" fit-margin-bottom="5" fit-margin-right="5" inkscape:current-layer="g12" inkscape:window-y="-3" inkscape:window-x="-2" inkscape:window-height="1012" inkscape:window-width="1920" inkscape:pageshadow="2" inkscape:pageopacity="0">
	</sodipodi:namedview>
<g id="g10" transform="matrix(1.25,0,0,-1.25,4.1645512,125.24866)" inkscape:label="ink_ext_XXXXXX" inkscape:groupmode="layer">
	<g id="g12" transform="scale(0.1,0.1)">
		<path id="path14" inkscape:connector-curvature="0" fill="#7B7979" d="M1051.105,205.794h67.508v406.301l264.312-406.301h66.793
			v531.539h-66.793V329.982L1119.34,737.333h-68.234V205.794"/>
		<path id="path16" inkscape:connector-curvature="0" fill="#7B7979" d="M1543.402,299.443c0-86.508,57.477-98.352,105.316-95.711
			c0,0,212.176,10.797,223.406,12.344v52.781h-216.91c-21.008,0-44.41-0.75-44.984,37.875v128.531l231.746,6.531v53.723
			l-231.746,8.016v127.914c0,19.602,0,40.648,37.766,40.648h224.129v53.508c-12.82,1.805-230.664,11.625-230.664,11.625
			c-49.176,1.91-98.059-21.773-98.059-98.672V299.443"/>
		<path id="path18" inkscape:connector-curvature="0" fill="#7B7979" d="M1931.543,672.708h152.141V205.794h66.789v466.914h156.515
			v64.625h-375.445V672.708"/>
		<path id="path20" inkscape:connector-curvature="0" fill="#648E86" d="M2395.215,205.794h29.789v247.594l253.406,5.125v21.047
			l-253.406,5.055v158.348c0,42.816,18.844,64.586,61.703,64.586h220.734v21.086l-220.734,8.699
			c-47.234,1.445-91.492-23.215-91.492-94.371V205.794"/>
		<path id="path22" inkscape:connector-curvature="0" fill="#648E86" d="M2796.035,205.794h29.742v236.719
			c2.211-1.438,140.188-7.25,165.609-7.969l116.18-228.75h31.195l-114.703,229.469c41.375,2.164,107.477,14.516,107.477,151.738
			c0,127.117-65.344,150.332-126.359,150.332h-209.141V205.794L2796.035,205.794z M2825.777,465.763v241.066h179.398
			c47.188,0,95.859-13.793,95.859-119.828c0-110.363-46.508-121.238-95.859-121.238H2825.777"/>
		<path id="path24" inkscape:connector-curvature="0" fill="#648E86" d="M3234.613,295.107c0-82.063,50.836-93.648,98.773-91.484
			l213.516,8.703v21.047h-213.516c-33.391,0-68.953,4.406-68.953,61.734v158.281l253.406,5.125v21.047l-253.406,5.055v158.348
			c0,42.816,18.844,64.586,61.703,64.586h220.766v21.086l-220.766,8.699c-47.188,1.445-91.523-23.215-91.523-94.371V295.107"/>
		<path id="path26" inkscape:connector-curvature="0" fill="#648E86" d="M3652.91,295.107c0-82.063,50.789-93.648,98.734-91.484
			l213.516,8.703v21.047h-213.516c-33.398,0-68.961,4.406-68.961,61.734v158.281l253.406,5.125v21.047l-253.406,5.055v158.348
			c0,42.816,18.844,64.586,61.742,64.586h220.734v21.086l-220.734,8.699c-47.227,1.445-91.516-23.215-91.516-94.371V295.107"/>
		<path id="path56" inkscape:connector-curvature="0" fill="#918F8F" d="M78.059,780.786
			c-8.918-107.191-13.25-339.367,111.992-531.805c65.742,93.516,143.219,163.875,224.598,214.5
			C375.441,669.193,200.629,749.556,78.059,780.786"/>
		<path id="path58" inkscape:connector-curvature="0" fill="#7B7979" d="M846.801,538.533
			c-28.09-184.16-119.539-404.535-383.812-517.035l0,0l-0.07-0.031v0.031c-119.395,50.875-203.586,123.844-262.508,205.5
			c75.387,109.969,167.195,187.672,262.508,238.609l0,0c5.344,2.813,10.723,5.633,16.066,8.305
			C606.824,537.958,739.684,554.997,846.801,538.533"/>
		<path id="path60" inkscape:connector-curvature="0" fill="#A7A5A6" d="M852.289,840.825c-0.543-7.258,14.875-95.059,8.16-212.973
			c-37.188,18.773-76.828,33.105-116.578,42.168c-87.621,20.004-176.184,14.441-240.625-25.453
			c-11.629,20.004-23.648,38.234-36.031,55.02l-0.039,0.039C382.082,814.615,280.02,856.673,188.895,866.134
			c167.953,44.441,277.633,95.496,278.281,95.82v0.035C467.176,961.99,624.91,888.372,852.289,840.825"/>
		<path id="path62" inkscape:connector-curvature="0" fill="#648E86" d="M740.406,645.036
			c72.168-16.426,143.797-51.086,199.141-98.234c-91.266,28.125-285.391,60.797-502.695-68.414
			C380.785,738.579,119.035,803.818,6.684,819.884c98.887,31.988,333.484,71.629,483.562-199.793l6.68-12.203l11.301,8.086
			C567.254,658.326,653.977,664.751,740.406,645.036"/>
	</g>
</g>
</svg>
